<svg width="25" height="24" viewBox="0 0 25 24" fill="none" xmlns="http://www.w3.org/2000/svg">
<path fill-rule="evenodd" clip-rule="evenodd" d="M3.56236 7.9639C3.97824 7.89608 4.47062 7.87488 5.03427 7.87488H15.7159C16.2795 7.87488 16.7719 7.89608 17.1878 7.9639C17.6019 8.03143 18.0013 8.15424 18.333 8.40169C18.7583 8.71886 18.9626 9.15142 19.0553 9.62488H20.0154C20.4938 9.62488 20.9324 9.64145 21.3157 9.69747C21.6943 9.7528 22.0919 9.85616 22.4417 10.0786C23.268 10.6042 23.3978 11.4809 23.3721 12.2424C23.3309 13.4608 23.0338 14.8644 22.1225 16.076C21.1965 17.3071 19.722 18.2261 17.5489 18.6097C17.4777 18.6222 17.4069 18.6269 17.3375 18.6244C16.741 19.6051 15.9459 20.519 14.886 21.3339C14.3372 21.7558 13.8052 22.0268 13.2029 22.1845C12.6158 22.3382 11.9956 22.3749 11.2944 22.3749H9.45573C8.75456 22.3749 8.13442 22.3382 7.54728 22.1845C6.94492 22.0268 6.41299 21.7558 5.86421 21.3339C2.19487 18.5127 1.70044 14.5072 1.62665 10.6393C1.61071 9.80358 1.69836 8.9378 2.41715 8.40169C2.74891 8.15424 3.14827 8.03143 3.56236 7.9639ZM20.0154 11.6249H19.094C19.026 13.2253 18.8469 14.8301 18.3635 16.3466C19.4256 15.9833 20.0941 15.4456 20.5242 14.8738C21.1085 14.0969 21.3406 13.1401 21.3732 12.1749C21.3815 11.931 21.3607 11.8079 21.3457 11.7545C21.306 11.7366 21.2128 11.7037 21.0264 11.6765C20.7872 11.6415 20.4627 11.6249 20.0154 11.6249Z" fill="white" fill-opacity="0.87"/>
<path d="M8.61632 4.83753C9.00027 4.45996 9.01679 3.84299 8.64835 3.44529C8.27301 3.04014 7.64031 3.01598 7.23516 3.39132C7.06899 3.54526 6.86533 3.83886 6.7649 4.02494C6.56209 4.40073 6.37506 4.93761 6.37506 5.62489C6.37506 6.17718 6.82278 6.62489 7.37506 6.62489C7.92735 6.62489 8.37506 6.17718 8.37506 5.62489C8.37506 5.31217 8.45789 5.09906 8.52493 4.97484C8.55942 4.91093 8.59102 4.86843 8.60767 4.84786L8.61632 4.83753Z" fill="white" fill-opacity="0.87"/>
<path d="M12.5342 2.0984C12.825 2.56794 12.68 3.1843 12.2105 3.47507C12.1489 3.51322 11.9296 3.71394 11.7206 4.1345C11.5244 4.52923 11.3763 5.0431 11.3763 5.62489C11.3763 6.17718 10.9286 6.62489 10.3763 6.62489C9.82402 6.62489 9.37631 6.17718 9.37631 5.62489C9.37631 4.70668 9.60871 3.88986 9.92964 3.24424C10.2377 2.62446 10.6723 2.07518 11.1575 1.77471C11.627 1.48394 12.2434 1.62886 12.5342 2.0984Z" fill="white" fill-opacity="0.87"/>
<path d="M15.2265 3.5984C15.4852 4.01613 15.399 4.55006 15.0462 4.86756C15.0277 4.90683 15.0032 4.96756 14.9776 5.04944C14.9095 5.26687 14.8751 5.49749 14.8751 5.62489C14.8751 6.17718 14.4273 6.62489 13.8751 6.62489C13.3228 6.62489 12.8751 6.17718 12.8751 5.62489C12.8751 5.2523 12.9545 4.81757 13.0688 4.45233C13.1272 4.26569 13.2045 4.06512 13.305 3.88103C13.3903 3.72487 13.558 3.45541 13.8498 3.27471C14.3194 2.98394 14.9357 3.12886 15.2265 3.5984Z" fill="white" fill-opacity="0.87"/>
</svg>
